# AST/ASF file generated using VICON BodyLanguage
# -----------------------------------------------
:version 1.10
:name VICON
:units
  mass 1.0
  length 0.45
  angle deg
:documentation
   .ast/.asf automatically generated from VICON data using
   VICON BodyBuilder and BodyLanguage model FoxedUp or BRILLIANT.MOD
:root
   order TX TY TZ RX RY RZ
   axis XYZ
   position 0 0 0  
   orientation 0 0 0 
:bonedata
  begin
     id 1 
     name lhipjoint
     direction 0.602128 -0.715006 0.355257 
     length 2.21237 
     axis 0 0 0  XYZ
  end
  begin
     id 2 
     name lfemur
     direction 0.34202 -0.939693 0  
     length 6.71649  
     axis 0 0 20  XYZ
    dof rx ry rz
    limits (-160.0 20.0)
           (-70.0 70.0)
           (-60.0 70.0)
  end
  begin
     id 3 
     name ltibia
     direction 0.34202 -0.939693 0   
     length 6.97123   
     axis 0 0 20   XYZ
    dof rx
    limits (-10.0 170.0)
  end
  begin
     id 4 
     name lfoot
     direction 0.0655697 -0.180151 0.981451   
     length 1.80924   
     axis -90 7.62852e-016 20   XYZ
    dof rx rz
    limits (-45.0 90.0)
           (-70.0 20.0)
  end
  begin
     id 5 
     name ltoes
     direction 1.53545e-011 -4.21827e-011 1   
     length 0.916331   
     axis -90 7.62852e-016 20   XYZ
    dof rx
    limits (-90.0 20.0)
  end
  begin
     id 6 
     name rhipjoint
     direction -0.625414 -0.698792 0.347201   
     length 2.2637  
     axis 0 0 0  XYZ 
  end
  begin
     id 7 
     name rfemur
     direction -0.34202 -0.939693 0   
     length 7.07595   
     axis 0 0 -20   XYZ
    dof rx ry rz
    limits (-160.0 20.0)
           (-70.0 70.0)
           (-70.0 60.0)
  end
  begin
     id 8 
     name rtibia
     direction -0.34202 -0.939693 0   
     length 7.22924   
     axis 0 0 -20   XYZ
    dof rx
    limits (-10.0 170.0)
 end
 begin
     id 9 
     name rfoot
     direction -0.0766747 -0.210662 0.974547   
     length 1.98482  
     axis -90 -7.62852e-016 -20   XYZ
    dof rx rz
    limits (-45.0 90.0)
           (-20.0 70.0)
  end
  begin
     id 10 
     name rtoes
     direction -1.53532e-011 -4.21867e-011 1   
     length 0.999842   
     axis -90 -7.62852e-016 -20   XYZ
    dof rx
    limits (-90.0 20.0)
  end
  begin
     id 11 
     name lowerback
     direction -0.0224668 0.997354 -0.0691422   
     length 2.09945   
     axis 0 0 0   XYZ
    dof rx ry rz
    limits (-20.0 45.0)
           (-30.0 30.0)
           (-30.0 30.0)
  end
  begin
     id 12 
     name upperback
     direction 0.0134698 0.998451 -0.0539888   
     length 2.09758   
     axis 0 0 0   XYZ
    dof rx ry rz
    limits (-20.0 45.0)
           (-30.0 30.0)
           (-30.0 30.0)
  end
  begin
     id 13 
     name thorax
     direction 0.0241905 0.99948 -0.0213333   
     length 2.10428   
     axis 0 0 0   XYZ
    dof rx ry rz
    limits (-20.0 45.0)
           (-30.0 30.0)
           (-30.0 30.0)
  end
  begin
     id 14 
     name lowerneck
     direction -0.00866847 0.995978 0.0891737   
     length 1.3959   
     axis 0 0 0   XYZ
    dof rx ry rz
    limits (-20.0 45.0)
           (-30.0 30.0)
           (-30.0 30.0)
  end
  begin
     id 15 
     name upperneck
     direction 0.0680679 0.992203 0.104404   
     length 1.39452   
     axis 0 0 0   XYZ
    dof rx ry rz
    limits (-20.0 45.0)
           (-30.0 30.0)
           (-30.0 30.0)
  end
  begin
     id 16
     name head
     direction 0.0242216 0.999358 0.0264054  
     length 1.40433  
     axis 0 0 0   XYZ
    dof rx ry rz
    limits (-20.0 45.0)
           (-30.0 30.0)
           (-30.0 30.0)
  end
  begin
     id 17 
     name lclavicle
     direction 0.929368 0.362991 -0.0671771  
     length 3.04887  
     axis 0 0 0   XYZ
    dof ry rz
    limits (-20.0 10.0)
           (0.0 20.0)
  end
  begin
     id 18 
     name lhumerus
     direction 1 -4.48967e-011 -7.13741e-028   
     length 4.77195   
     axis -180 -30 -90   XYZ
    dof rx ry rz
    limits (-60.0 90.0)
           (-90.0 90.0)
           (-90.0 90.0)
  end
  begin
     id 19
     name lradius
     direction 1 -4.48977e-011 3.60404e-027   
     length 2.98444   
     axis -180 -30 -90   XYZ
    dof rx
    limits (-10.0 170.0)
  end
  begin
     id 20
     name lwrist
     direction 1 -4.48997e-011 7.54877e-027   
     length 1.49222   
     axis -7.18178e-015 90 90   XYZ
    dof ry
    limits (-180.0 0.0)
 end
  begin
     id 21 
     name lhand
     direction 1 -4.489e-011 1.51105e-026   
     length 0.992285   
     axis -9.63605e-015 90 90   XYZ
    dof rx rz
    limits (-90.0 90.0)
           (-45.0 45.0)
  end
  begin
     id 22 
     name lfingers
     direction 1 -4.48998e-011 3.01948e-026   
     length 0.800006   
     axis -1.92718e-014 90 90   XYZ
    dof rx
    limits (0.0 90.0)
  end
  begin
     id 23
     name lthumb
     direction 0.707107 -6.34881e-011 0.707107   
     length 1.14865   
     axis -90 45 -3.53137e-014   XYZ
    dof rx rz
    limits (-45.0 45.0)
           (-45.0 45.0)
  end
  begin
     id 24 
     name rclavicle
     direction -0.945672 0.324529 0.0196374   
     length 3.4236  
     axis 0 0 0   XYZ 
    dof ry rz
    limits (-10.0 20.0)
           (-20.0 0.0)
  end
  begin
     id 25 
     name rhumerus
     direction -1 -4.4896e-011 1.02757e-029  
     length 4.62052   
     axis -180 30 90   XYZ
    dof rx ry rz
    limits (-90.0 60.0)
           (-90.0 90.0)
           (-90.0 90.0)
  end
  begin
     id 26 
     name rradius
     direction -1 -4.48982e-011 3.85962e-027   
     length 2.95332   
     axis -180 30 90   XYZ
    dof rx
    limits (-10.0 170.0)
  end
  begin
     id 27 
     name rwrist
     direction -1 -4.48961e-011 7.55118e-027   
     length 1.47666   
     axis -7.18178e-015 -90 -90   XYZ
    dof ry
    limits (-180.0 0.0)
  end
  begin
     id 28
     name rhand
     direction -1 -4.48984e-011 1.50994e-026   
     length 0.990956   
     axis -9.63605e-015 -90 -90   XYZ
    dof rx rz
    limits (-90.0 90.0)
           (-45.0 45.0)
  end
  begin
     id 29
     name rfingers
     direction -1 -4.4892e-011 3.02158e-026   
     length 0.798934   
     axis -1.92718e-014 -90 -90   XYZ
    dof rx
    limits (0.0 90.0)
  end
  begin
     id 30
     name rthumb
     direction -0.707107 -6.34916e-011 0.707107   
     length 1.14711   
     axis -90 -45 3.53137e-014   XYZ
    dof rx rz
    limits (-45.0 45.0)
           (-45.0 45.0)
  end
:hierarchy
  begin
    root lhipjoint rhipjoint lowerback
    lhipjoint lfemur
    lfemur ltibia
    ltibia lfoot
    lfoot ltoes
    rhipjoint rfemur
    rfemur rtibia
    rtibia rfoot
    rfoot rtoes
    lowerback upperback
    upperback thorax
    thorax lowerneck lclavicle rclavicle
    lowerneck upperneck
    upperneck head
    lclavicle lhumerus
    lhumerus lradius
    lradius lwrist
    lwrist lhand lthumb
    lhand lfingers
    rclavicle rhumerus
    rhumerus rradius
    rradius rwrist
    rwrist rhand rthumb
    rhand rfingers
  end

#!OML:ASF H:\ManfredObstacles\Project 1\Capture day 1\Session 1\Male.ASF
:FULLY-SPECIFIED
:DEGREES
81
root -14.9045 16.079 38.1582 -169.566 -10.5006 -179.059
lowerback -8.89745 -2.32368 -2.24996
upperback 1.36558 -2.93631 1.26232
thorax 6.61188 -1.5546 2.16078
lowerneck 1.9712 -2.60165 -4.53375
upperneck -12.599 -3.3351 10.1276
head -3.79639 -2.22972 3.99607
rclavicle 3.30976e-014 -1.3418e-015
rhumerus -37.1953 -28.0149 -72.361
rradius 23.9419
rwrist 36.4421
rhand -3.38805 -6.52465
rfingers 7.12502
rthumb 22.3415 -35.2529
lclavicle 3.30976e-014 -1.3418e-015
lhumerus -25.3218 15.9408 84.7233
lradius 16.1896
lwrist -35.8282
lhand -6.45597 9.38732
lfingers 7.12502
lthumb 19.394 38.4402
rfemur -34.8753 -3.7957 17.1913
rtibia 27.7159
rfoot -7.12948 7.43863
rtoes -3.67941
lfemur 5.92402 -4.73893 -19.9245
ltibia 2.54444e-014
lfoot -8.1656 -5.42914
ltoes 11.8538
82
root -14.9043 16.0781 38.1632 -169.533 -10.3874 -179.051
lowerback -8.82264 -2.31041 -2.26905
upperback 1.34641 -2.91953 1.28436
thorax 6.55013 -1.547 2.20024
lowerneck 1.91171 -2.60253 -4.51961
upperneck -12.5194 -3.33707 10.1155
head -3.76285 -2.22665 3.98665
rclavicle 4.15708e-014 5.11871e-015
rhumerus -37.1244 -27.9437 -72.3903
rradius 23.8994
rwrist 36.3741
rhand -3.4196 -6.56501
rfingers 7.12502
rthumb 22.3112 -35.2969
lclavicle 4.15708e-014 5.11871e-015
lhumerus -25.3451 15.9397 84.7592
lradius 16.2221
lwrist -35.7846
lhand -6.448 9.44369
lfingers 7.12502
lthumb 19.4016 38.4958
rfemur -34.9396 -3.60327 17.1189
rtibia 27.6906
rfoot -7.52105 7.2491
rtoes 7.47787
lfemur 5.87659 -4.62697 -19.9317
ltibia -1.27222e-014
lfoot -8.28315 -5.48229
ltoes 11.8164
83
root -14.9023 16.0826 38.1631 -169.536 -10.486 -179.046
lowerback -8.76483 -2.36336 -2.31923
upperback 1.36066 -2.98877 1.32771
thorax 6.54167 -1.58405 2.26544
lowerneck 1.86594 -2.59996 -4.53941
upperneck -12.4869 -3.33519 10.1134
head -3.74517 -2.22287 3.98742
rclavicle -6.25799e-014 1.10325e-014
rhumerus -37.0441 -27.9656 -72.3874
rradius 23.848
rwrist 36.412
rhand -3.50737 -6.46982
rfingers 7.12502
rthumb 22.227 -35.2118
lclavicle -6.25799e-014 1.10325e-014
lhumerus -25.3443 15.7619 84.8654
lradius 16.3071
lwrist -35.531
lhand -6.40393 9.47104
lfingers 7.12502
lthumb 19.444 38.5188
rfemur -34.9351 -3.49088 17.0697
rtibia 27.699
rfoot -7.57346 7.04656
rtoes 7.78798
lfemur 5.85056 -4.72512 -19.8962
ltibia 3.18055e-015
lfoot -8.30335 -5.4067
ltoes 11.4983
84
root -14.9037 16.0831 38.1652 -169.511 -10.4807 -179.03
lowerback -8.72505 -2.36186 -2.29598
upperback 1.37595 -2.99126 1.34418
thorax 6.53503 -1.58496 2.27045
lowerneck 1.82288 -2.60383 -4.54538
upperneck -12.4726 -3.34061 10.1295
head -3.73272 -2.22556 3.99229
rclavicle -1.95803e-014 -7.30534e-015
rhumerus -36.9579 -28.0499 -72.365
rradius 23.7688
rwrist 36.5226
rhand -3.6071 -6.36291
rfingers 7.12502
rthumb 22.1312 -35.1162
lclavicle -1.95803e-014 -7.30534e-015
lhumerus -25.3119 15.6659 84.9195
lradius 16.3457
lwrist -35.4275
lhand -6.33588 9.39644
lfingers 7.12502
lthumb 19.5094 38.4376
rfemur -34.9962 -3.66499 17.1742
rtibia 27.7086
rfoot -7.12246 7.3095
rtoes -2.15363
lfemur 5.80401 -4.71682 -19.8847
ltibia -5.40694e-014
lfoot -8.2309 -5.35821
ltoes 12.4637
85
root -14.9047 16.0786 38.167 -169.488 -10.4686 -179.004
lowerback -8.69163 -2.36259 -2.22751
upperback 1.40839 -2.99973 1.3359
thorax 6.54662 -1.58678 2.22264
lowerneck 1.74007 -2.61396 -4.47115
upperneck -12.4444 -3.35421 10.1352
head -3.71058 -2.23549 3.9797
rclavicle -2.30342e-014 7.55382e-015
rhumerus -36.8086 -28.3032 -72.3202
rradius 23.6048
rwrist 36.8154
rhand -3.6291 -6.30783
rfingers 7.12502
rthumb 22.1101 -35.0637
lclavicle -2.30342e-014 7.55382e-015
lhumerus -25.2522 15.8163 84.8499
lradius 16.2702
lwrist -35.6391
lhand -6.34266 9.29133
lfingers 7.12502
lthumb 19.5029 38.3332
rfemur -35.0167 -3.61163 17.1709
rtibia 27.7181
rfoot -7.17313 7.23617
rtoes -2.42563
lfemur 5.7938 -4.69957 -19.8631
ltibia -2.54444e-014
lfoot -8.15931 -5.35669
ltoes 14.5634
86
root -14.9039 16.0801 38.1657 -169.46 -10.5207 -178.971
lowerback -8.68869 -2.40486 -2.17898
upperback 1.4558 -3.0629 1.35436
thorax 6.59739 -1.61735 2.20454
lowerneck 1.70897 -2.60001 -4.43478
upperneck -12.5079 -3.33793 10.125
head -3.72665 -2.23254 3.97122
rclavicle -3.57067e-014 1.21259e-014
rhumerus -36.6583 -28.5661 -72.2594
rradius 23.456
rwrist 37.154
rhand -3.58082 -6.26317
rfingers 7.12502
rthumb 22.1564 -35.0135
lclavicle -3.57067e-014 1.21259e-014
lhumerus -25.1813 16.0604 84.7905
lradius 16.1886
lwrist -35.884
lhand -6.39038 9.28148
lfingers 7.12502
lthumb 19.457 38.328
rfemur -35.0007 -3.36609 17.0897
rtibia 27.7041
rfoot -7.97661 6.72275
rtoes 9.39176
lfemur 5.74989 -4.74612 -19.8059
ltibia 1.90833e-014
lfoot -8.13397 -5.34854
ltoes 15.6409
87
root -14.9028 16.0796 38.1644 -169.422 -10.5798 -178.978
lowerback -8.63543 -2.47115 -2.21785
upperback 1.4694 -3.15273 1.41657
thorax 6.5928 -1.66473 2.28007
lowerneck 1.75548 -2.52248 -4.60328
upperneck -12.6013 -3.23507 10.1899
head -3.76554 -2.18222 4.02015
rclavicle -2.18415e-014 9.7653e-015
rhumerus -36.5635 -28.6328 -72.1737
rradius 23.35
rwrist 37.3235
rhand -3.5768 -6.21205
rfingers 7.12502
rthumb 22.1603 -34.9619
lclavicle -2.18415e-014 9.7653e-015
lhumerus -25.1271 16.4016 84.7911
lradius 16.0876
lwrist -36.1934
lhand -6.44935 9.3612
lfingers 7.12502
lthumb 19.4003 38.4134
rfemur -35.0334 -3.33055 17.074
rtibia 27.7017
rfoot -7.43564 6.7641
rtoes -0.963024
lfemur 5.69995 -4.80651 -19.7928
ltibia 5.40694e-014
lfoot -8.13701 -5.38432
ltoes 15.5959
